<svg width="299" height="621" viewBox="0 0 299 621" fill="none" xmlns="http://www.w3.org/2000/svg">
<path d="M106.5 620V570L99.5 554.5L92 543.5L99.5 536.5H110L120 530.5L115 521.5L126.5 525L130.5 521.5L144 518L150 521.5L153 527H163V521.5L164 516.5L161.5 513.5L159.5 514.5L153 509L150 501V496L148 493.5L150 489.5L153 491.5L156.5 485.5L164 487.5L168 489.5H171.5L173 485.5L174.5 481L173 477H184L187.5 473.5H194.5L202 464.5L210 462L212.5 464.5L218.5 462V443.5L214.5 436.5L220.5 421L221.5 411L218.5 407.5V404L214.5 401.5V393.5L210 391.5L211 389.5L210 387.5L211 383.5L217 368.5L218.5 363.5L217 361.5V358.5L218.5 356L214.5 352.5V349.5H218.5V340L223.5 338L220.5 335H218.5L215.5 331.5L210.5 329.5L206.5 324.5L203 317L210.5 312.5L213 309.5L214 306L213.5 304H209L204 303.5L200 300L199 297H195L191.5 294.5L189.5 290.5V288L188.5 287.5L187 290.5L185 291.5L181.5 291L180 289V286L178.5 283.5L176 280V274V271L175.5 270L172 268.5L169 265L167.5 262L167 260.5L166 259.5L165.5 258.5L158 253.5L152 247L146.5 240.5L139.5 232.5L137.5 230.5L139.5 228L136 223L134.5 221.5L133 218.5L130.5 220.5L128 219.5L126 217.5L119 210L118 208L117.5 205L118 203.5L118.5 201.5L119.5 200.5L121 198.5L116.5 197L113 195.5L110 194.5L107.5 194L103 192.5L99 190.5L94.5 185H91.5L90 183L87 181.5L84.5 180L82.5 179L81 177.5L78 176L75 175L72.5 174L70 173L69 172L69.5 169.5L70.5 169L72.5 167.5L74.5 167L77 166L78 164.5V162.5V160.5L75.5 157.5L76 154H79H80.5H85.5L88.5 154.5H90L91.5 155L93.5 156.5L95.5 157.5L96.5 158.5L98.5 157.5L100.5 155L101.5 154L102 152.5L104 151.5L106 150.5L107.5 149.5L106 148.5L105 148V146.5H106L107.5 145L110.5 143.5L112.5 142V139.5L112 137.5L110.5 136.5L107.5 135L103.5 134L101 132.5L102 131H104V128.5V126.5H102L100 125.5L96.5 126H95L93 125.5L91.5 123L92 122.5L93.5 121L96 119.5L97.5 119V116.5L97 115L92 110.5L88.5 107L86.5 105.5L80 102.5L77.5 105L75 106L70.5 109L65.5 110.5L54.5 110L52.5 108H44.5L40.5 105.5L38.5 102.5L37 99.5L34.5 97L31.5 94L32 91L28.5 90L28 87L33.5 80.5L35 75L34.5 71L29 67L20 62.5L17 60L15.5 58L9 51L6 47.5L2.5 44.5L2 41.5L2.5 39.5L5 37.5L11 32" stroke="white" stroke-width="2"/>
<path d="M11 32L13.5 27L17.5 25.5L19.5 26L20.5 28L26.5 30.5L30 32.5L32.5 34.5L34 37L36 38L38.5 37L40 36L42 32.5L43.5 31L45 30.5H46.5L48 26.5V24.5H49H50.5L51.5 25L52.5 26.5L54 29L55 30.5V31.5L57.5 31L58 28L60 25.5H62L63.5 27.5L66.5 30.5L68.5 32L70 33.5L71 34.5L72.5 36.5L75 37L74.5 33L76 29.5L78.5 25L79.5 24.5L82.5 23.5H83.5H85L86 24.5L87 26L87.5 26.5L88.5 28L90 29L92 28.5L93 25.5L94.5 24.5L96 23.5H98H100H102.5L104 23L105 22L105.5 20.5L107 19V18L106 14L106.5 11.5L107 11L108 10.5L109.5 9L110.5 8.5H111.5H112.5L114 8L115 7.5L116.5 6L117.5 5.5L120 5L121.5 4.5L122.5 4L125 1H126H127.5L128.5 2.5L129.5 4L131.5 5L132.5 6L134.5 8.5L136 10L136.5 11V12.5V13.5L138 13L140 13.5H141.5L143 14L144 15.5L145.5 16L147 17.5L148 18.5L149 19H150.5L151 18L152 17L153 16.5L155 17H158.5H160L161 17.5L162 18L163 19.5V20.5L164 21.5H165.5L167.5 21H168.5L170 19.5L171.5 18.5H173L182 22L184.5 23.5L185 24.5L185.5 26L184.5 27.5L183.5 28.5L182.5 31L181.5 33.5L180.5 35L177.5 36L176 37.5V39.5V41.5L177 43L177.5 43.5L180 45.5L180.5 51.5V54.5V57L181 57.5L182.5 58L184.5 58.5L186 59H188L189.5 60L190.5 60.5L191.5 60L193.5 60.5L194.5 61L195 62V63.5L194 64.5L193 65.5L196 66.5L199 68L200 69L201 70L204 69L206 70V71.5L206.5 73V73.5L208.5 72L210 71.5H211.5V72V73.5V74.5L212 75L214 74H216H218.5L219.5 73.5L220.5 72.5L222.5 72H224.5L226.5 72.5L227.5 74L228.5 75L230 76L231.5 76.5L233 77.5L232.5 79L232 80H230L228 79L227 78.5L225 79.5L223 81L219.5 84L217 86.5L215.5 88.5L212 87.5L210 88.5L212 89.5L214.5 90L217 92.5L212.5 94L210 97L206.5 98.5L204 100L201 103.5L196.5 101.5H193.5L190.5 103.5L188 105V107L191.5 106H193.5H195L196.5 108V110H195L194 111H190.5L188 110L185 109.5L178 118L176.5 123V126.5V128.5L175 131L172.5 133H168.5L167.5 135.5L162.5 140L157 145H155L154 144L152 149.5L148.5 155L146 160.5V167V169L147 170V171.5L143.5 175L143 180H140L139.5 182.5L139 187L141 188.5L143 191.5L145.5 195.5L148 202L152.5 207.5L159.5 214L164 216.5L168 220L171 221L173 225.5L174.5 229L172.5 230.5V232.5L173 235.5L173.5 237.5L175.5 239.5L177.5 243L180 246.5L182.5 250.5L186.5 255L191.5 258L196 261.5L199 263.5V266.5L201.5 269.5L205 272.5L211.5 278.5L217.5 283.5L224.5 287L229 290.5L231.5 293.5L236 294.5L238 298.5L242 300L240.5 302.5L242 304.5L245 302.5L247.5 304.5L245 306L251.5 314L255.5 321.5L261 328.5L267 334.5L268.5 333L273.5 340.5L271 344.5L272.5 345.5L273 349.5L280 362.5V368L285 380.5L286 387L288 390.5V394L290 397.5L289 403L286 404.5L289 410.5V412L291 414L289 417L290 422V427.5L297 438.5L295.5 440L292 442L288 446L286.5 448.5L288 451.5L290 453.5L292 456L293 459L289.5 461.5L287.5 464.5V468.5V471L288 473L290 475.5L292 477V479L289 480H286.5L285 479L284.5 481L285 483L288 484V486.5L287.5 488.5L286 489.5L285 493.5H281L278.5 499L279.5 503L277 505.5L271.5 504L269 508L267 510.5L263 509.5L258.5 512.5L257.5 516L254.5 517L251 520.5H242L237.5 531L232.5 529.5L227.5 533.5H225L221.5 536L216.5 540H211L207.5 543.5L201 544.5L199.5 541.5L197.5 540L194.5 541.5L195.5 543.5H192L187.5 541.5L188 548.5L186.5 551.5L188.5 554.5L186.5 557L183.5 558.5L181.5 561L183.5 564L183 567L181 568L175 563L177 567L179 571L179.5 574.5L177 577.5L173.5 579.5L168.5 577.5L166.5 579.5L164 581.5L163 584L163.5 586L162 587.5L145.5 594L136 598L132 600.5L130.5 602L129.5 604.5L129 607L127 609.5L125 611L122.5 611.5L120 615L117.5 617L111.5 619L106.5 619.5" stroke="white" stroke-width="2"/>
<path d="M100 25.5L139.5 101L123.5 171L181.5 263.5L258 382.5L225 493.5L107.5 619.5" stroke="white"/>
<circle cx="138.5" cy="101.5" r="4.5" fill="white"/>
<circle cx="123.5" cy="171.5" r="4.5" fill="white"/>
<circle cx="257.5" cy="381.5" r="4.5" fill="white"/>
<circle cx="225.5" cy="492.5" r="4.5" fill="white"/>
</svg>
