<svg width="298" height="621" viewBox="0 0 298 621" fill="none" xmlns="http://www.w3.org/2000/svg">
<path d="M105.862 620.111L105.833 570.111L98.8239 554.615L91.3174 543.62L98.8133 536.615L109.313 536.609L119.31 530.603L114.305 521.606L125.807 525.1L129.805 521.597L143.302 518.089L149.305 521.586L152.308 527.084L162.308 527.078L162.305 521.578L163.302 516.578L160.8 513.579L158.8 514.58L152.297 509.084L149.293 501.086L149.29 496.086L147.288 493.587L149.286 489.586L152.287 491.584L155.783 485.582L163.285 487.578L167.286 489.575L170.786 489.573L172.283 485.572L173.781 481.072L172.278 477.072L183.278 477.066L186.776 473.564L193.776 473.56L201.271 464.555L209.27 462.051L211.771 464.549L217.77 462.046L217.759 443.546L213.755 436.548L219.746 421.045L220.74 411.044L217.738 407.546L217.736 404.046L213.734 401.548L213.73 393.548L209.228 391.551L210.227 389.55L209.226 387.551L210.224 383.55L216.215 368.547L217.712 363.546L216.211 361.547L216.209 358.547L217.708 356.046L213.706 352.548L213.704 349.548L217.704 349.546L217.698 340.046L222.697 338.043L219.695 335.045L217.695 335.046L214.693 331.548L209.692 329.551L205.689 324.553L202.185 317.055L209.682 312.551L212.18 309.549L213.178 306.048L212.677 304.049L208.177 304.051L203.177 303.554L199.175 300.057L198.173 297.057L194.173 297.06L190.672 294.562L188.669 290.563L188.668 288.063L187.668 287.563L186.169 290.564L184.17 291.565L180.67 291.068L179.168 289.068L179.167 286.068L177.665 283.569L175.163 280.071L175.16 274.071L175.158 271.071L174.657 270.071L171.156 268.573L168.154 265.075L166.653 262.076L166.152 260.576L165.151 259.577L164.651 258.577L157.148 253.581L151.144 247.085L145.64 240.588L138.635 232.592L136.634 230.593L138.633 228.092L135.13 223.094L133.629 221.595L132.127 218.596L129.628 220.597L127.128 219.599L125.127 217.6L118.122 210.104L117.121 208.105L116.619 205.105L117.118 203.605L117.617 201.604L118.617 200.604L120.115 198.603L115.615 197.106L112.114 195.608L109.113 194.609L106.613 194.111L102.112 192.613L98.1108 190.616L93.6076 185.118L90.6076 185.12L89.1064 183.121L86.1056 181.623L83.6047 180.124L81.6041 179.125L80.1032 177.626L77.1023 176.128L74.1018 175.13L71.6012 174.131L69.1006 173.133L68.1 172.133L68.5985 169.633L69.5982 169.132L71.5974 167.631L73.5971 167.13L76.0965 166.129L77.0956 164.628L77.0944 162.628L77.0933 160.628L74.5915 157.63L75.0895 154.129L78.0895 154.128L79.5895 154.127L84.5895 154.124L87.5897 154.622L89.0897 154.621L90.59 155.12L92.5909 156.619L94.5915 157.618L95.5921 158.617L97.5915 157.616L99.59 155.115L100.589 154.114L101.089 152.614L103.088 151.613L105.087 150.612L106.587 149.611L105.086 148.612L104.086 148.112L104.085 146.612L105.085 146.612L106.584 145.111L109.583 143.609L111.582 142.108L111.581 139.608L111.08 137.608L109.579 136.609L106.578 135.111L102.578 134.113L100.077 132.615L101.076 131.114L103.076 131.113L103.075 128.613L103.073 126.613L101.073 126.614L99.0728 125.615L95.5731 126.117L94.0731 126.118L92.0728 125.619L90.5713 123.12L91.071 122.62L92.5701 121.119L95.0693 119.618L96.569 119.117L96.5675 116.617L96.0666 115.117L91.064 110.62L87.5619 107.122L85.5611 105.623L79.0593 102.627L76.5608 105.128L74.0614 106.13L69.5631 109.133L64.564 110.635L53.5637 110.142L51.5625 108.143L43.5625 108.148L39.5611 105.65L37.5593 102.651L36.0576 99.6521L33.5561 97.1536L30.5543 94.1553L31.0526 91.155L27.552 90.1571L27.0503 87.1574L32.5464 80.6542L34.0432 75.1533L33.5409 71.1536L28.0385 67.1568L19.0359 62.6621L16.0345 60.1638L14.5333 58.1647L8.02919 51.1685L5.02714 47.6703L1.52538 44.6723L1.02363 41.6726L1.52246 39.6723L4.02128 37.6709L10.0181 32.1673" stroke="#AA4D2B" stroke-width="2"/>
<path d="M10.0181 32.1674L12.5152 27.1659L16.5143 25.6635L18.5146 26.1624L19.5158 28.1618L25.5173 30.6583L29.0184 32.6562L31.5196 34.6548L33.0211 37.1539L35.0217 38.1527L37.5211 37.1513L39.0205 36.1504L41.0184 32.6492L42.5176 31.1483L44.0173 30.6475L45.5173 30.6466L47.0149 26.6457L47.0137 24.6457L48.0137 24.6451L49.5137 24.6442L50.514 25.1436L51.5149 26.6431L53.0164 29.1422L54.0173 30.6416L54.0178 31.6416L56.5176 31.1401L57.0158 28.1398L59.0143 25.6387L61.0143 25.6375L62.5155 27.6366L65.5173 30.6349L67.5181 32.1337L69.019 33.6328L70.0196 34.6322L71.5208 36.6314L74.0211 37.1299L73.5187 33.1302L75.0167 29.6293L77.514 25.1278L78.5137 24.6273L81.5132 23.6255L82.5132 23.6249L84.0132 23.624L85.0137 24.6235L86.0146 26.1229L86.5149 26.6226L87.5158 28.122L89.0164 29.1211L91.0161 28.6199L92.0143 25.6194L93.5137 24.6185L95.0132 23.6176L97.0132 23.6164L99.0132 23.6153L101.513 23.6138L103.013 23.1129L104.012 22.1123L104.511 20.612L106.011 19.1112L106.01 18.1112L105.008 14.1118L105.506 11.6115L106.006 11.1112L107.006 10.6106L108.505 9.10971L109.504 8.60912L110.504 8.60853L111.504 8.60795L113.004 8.10707L114.004 7.60649L115.503 6.10561L116.503 5.60502L119.002 5.10356L120.502 4.60268L121.502 4.1021L124 1.10063L125 1.10005L126.5 1.09917L127.501 2.59859L128.502 4.098L130.502 5.09683L131.503 6.09624L133.504 8.59507L135.005 10.0942L135.506 11.0939L135.507 12.5939L135.507 13.5939L137.007 13.093L139.007 13.5919L140.507 13.591L142.008 14.0901L143.008 15.5895L144.509 16.0886L146.01 17.5878L147.01 18.5872L148.011 19.0866L149.511 19.0857L150.01 18.0854L151.009 17.0848L152.009 16.5842L154.009 17.0831L157.509 17.081L159.009 17.0801L160.01 17.5796L161.01 18.079L162.011 19.5784L162.011 20.5784L163.012 21.5778L164.512 21.5769L166.512 21.0758L167.512 21.0752L169.011 19.5743L170.51 18.5734L172.01 18.5725L181.012 22.0673L183.513 23.5658L184.014 24.5655L184.515 26.0652L183.515 27.5658L182.516 28.5664L181.518 31.067L180.519 33.5676L179.52 35.0681L176.52 36.0699L175.021 37.5708L175.023 39.5708L175.024 41.5708L176.025 43.0702L176.525 43.5699L179.026 45.5684L179.53 51.5681L179.531 54.5681L179.533 57.0681L180.033 57.5678L181.533 58.067L183.534 58.5658L185.034 59.0649L187.034 59.0638L188.535 60.0629L189.535 60.5623L190.535 60.0617L192.535 60.5605L193.535 61.0599L194.036 62.0597L194.037 63.5597L193.037 64.5602L192.038 65.5608L195.038 66.5591L198.039 68.0573L199.04 69.0567L200.04 70.0561L203.04 69.0544L205.04 70.0532L205.041 71.5532L205.542 73.0529L205.542 73.5529L207.542 72.0517L209.041 71.5509L210.541 71.55L210.542 72.05L210.542 73.55L210.543 74.55L211.043 75.0497L213.043 74.0485L215.043 74.0474L217.543 74.0459L218.542 73.5453L219.542 72.5447L221.542 72.0436L223.542 72.0424L225.542 72.5412L226.543 74.0406L227.543 75.04L229.044 76.0392L230.544 76.5383L232.045 77.5374L231.546 79.0377L231.046 80.038L229.046 80.0392L227.046 79.0403L226.045 78.5409L224.046 79.5421L222.047 81.0433L218.549 84.0453L216.05 86.5468L214.551 88.5476L211.051 87.5497L209.051 88.5509L211.052 89.5497L213.552 90.0482L216.054 92.5468L211.554 94.0494L209.056 97.0509L205.557 98.5529L203.058 100.054L200.06 103.556L195.559 101.559L192.559 101.561L189.56 103.562L187.061 105.064L187.062 107.064L190.561 106.062L192.561 106.061L194.061 106.06L195.563 108.059L195.564 110.059L194.064 110.06L193.064 111.06L189.564 111.062L187.064 110.064L184.063 109.565L177.068 118.07L175.571 123.07L175.573 126.57L175.575 128.57L174.076 131.071L171.577 133.073L167.577 133.075L166.579 135.576L161.581 140.079L156.084 145.082L154.084 145.083L153.084 144.084L151.087 149.585L147.59 155.087L145.093 160.588L145.097 167.088L145.098 169.088L146.099 170.088L146.1 171.588L142.602 175.09L142.105 180.09L139.105 180.092L138.606 182.592L138.109 187.092L140.11 188.591L142.111 191.59L144.614 195.589L147.118 202.087L151.621 207.585L158.625 214.08L163.126 216.578L167.128 220.075L170.129 221.074L172.131 225.573L173.633 229.072L171.634 230.573L171.635 232.573L172.137 235.572L172.638 237.572L174.64 239.571L176.642 243.07L179.144 246.568L181.646 250.567L185.649 255.065L190.65 258.062L195.152 261.559L198.154 263.557L198.155 266.557L200.657 269.556L204.159 272.554L210.662 278.55L216.665 283.546L223.667 287.042L228.169 290.54L230.671 293.538L235.172 294.536L237.174 298.534L241.175 300.032L239.676 302.533L241.178 304.532L244.176 302.53L246.678 304.529L244.178 306.03L250.683 314.027L254.688 321.524L260.192 328.521L266.195 334.517L267.694 333.017L272.699 340.514L270.201 344.515L271.702 345.514L272.204 349.514L279.212 362.51L279.215 368.01L284.222 380.507L285.226 387.006L287.228 390.505L287.23 394.005L289.232 397.504L288.235 403.005L285.236 404.506L288.24 410.505L288.241 412.005L290.242 414.003L288.243 417.005L289.246 422.004L289.25 427.504L296.256 438.5L294.757 440.001L291.258 442.003L287.26 446.005L285.762 448.506L287.264 451.505L289.265 453.504L291.266 456.003L292.268 459.002L288.769 461.504L286.771 464.505L286.774 468.505L286.775 471.005L287.276 473.005L289.278 475.504L291.279 477.003L291.28 479.003L288.28 480.005L285.78 480.006L284.28 479.007L283.781 481.007L284.282 483.007L287.283 484.005L287.284 486.505L286.785 488.505L285.286 489.506L284.288 493.507L280.288 493.509L277.791 499.011L278.794 503.01L276.295 505.512L270.794 504.015L268.297 508.016L266.298 510.517L262.298 509.52L257.799 512.522L256.801 516.023L253.802 517.025L250.304 520.527L241.304 520.532L236.81 531.035L231.809 529.538L226.812 533.541L224.312 533.542L220.813 536.044L215.815 540.047L210.315 540.05L206.817 543.552L200.318 544.556L198.816 541.557L196.815 540.058L193.816 541.56L194.817 543.559L191.317 543.561L186.816 541.564L187.32 548.564L185.822 551.565L187.824 554.563L185.825 557.065L182.826 558.566L180.828 561.067L182.829 564.066L182.331 567.067L180.332 568.068L174.329 563.071L176.331 567.07L178.334 571.069L178.836 574.569L176.337 577.57L172.839 579.572L167.837 577.575L165.839 579.576L163.34 581.578L162.341 584.078L162.842 586.078L161.343 587.579L144.847 594.089L135.349 598.094L131.351 600.596L129.852 602.097L128.853 604.598L128.355 607.098L126.356 609.599L124.357 611.101L121.857 611.602L119.359 615.103L116.861 617.105L110.862 619.108L105.862 619.611" stroke="#AA4D2B" stroke-width="2"/>
<path d="M99.0142 25.6152L138.558 101.092L122.599 171.101L180.653 263.567L257.223 382.523L224.288 493.542L106.862 619.611" stroke="#AA4D2B"/>
<circle cx="137.559" cy="101.593" r="4" transform="rotate(-0.0335349 137.559 101.593)" fill="#AA4D2B" stroke="#AA4D2B"/>
<circle cx="122.6" cy="171.601" r="4" transform="rotate(-0.0335349 122.6 171.601)" fill="#AA4D2B" stroke="#AA4D2B"/>
<circle cx="256.723" cy="381.523" r="4" transform="rotate(-0.0335349 256.723 381.523)" fill="#AA4D2B" stroke="#AA4D2B"/>
<circle cx="224.788" cy="492.542" r="4" transform="rotate(-0.0335349 224.788 492.542)" fill="#AA4D2B" stroke="#AA4D2B"/>
</svg>
